static_grf.mot
version=1
nRows=15
nColumns 19
inDegrees=yes
endheader
time	1_ground_force_vx	1_ground_force_vy	1_ground_force_vz	1_ground_force_px	1_ground_force_py	1_ground_force_pz	1_ground_torque_x	1_ground_torque_y	1_ground_torque_z	2_ground_force_vx	2_ground_force_vy	2_ground_force_vz	2_ground_force_px	2_ground_force_py	2_ground_force_pz	2_ground_torque_x	2_ground_torque_y	2_ground_torque_z
            1.486500	           -1.193360	          408.412856	          -24.201069	           -0.274975	            0.006225	           -0.407643	           -0.005977	            2.045632	           -0.121217	           -0.401671	          438.919939	           27.892597	           -0.280513	            0.005427	           -0.685262	            0.001685	           -1.841161	           -0.117003
            1.487000	           -1.148086	          408.413848	          -24.430463	           -0.275007	            0.006227	           -0.407943	           -0.005876	            2.090427	           -0.125045	           -0.545503	          439.839862	           27.989798	           -0.280332	            0.005429	           -0.685657	            0.002233	           -1.800733	           -0.114592
            1.487500	           -1.101803	          407.872440	          -24.295328	           -0.275373	            0.006226	           -0.407900	           -0.005776	            2.138300	           -0.127370	           -0.500105	          440.209317	           27.709523	           -0.280468	            0.005429	           -0.685952	            0.002031	           -1.787908	           -0.112542
            1.488000	           -1.101608	          408.052343	          -24.202843	           -0.275275	            0.006227	           -0.407961	           -0.005581	            2.067119	           -0.122607	           -0.402377	          439.104415	           27.799397	           -0.280241	            0.005429	           -0.685538	            0.001659	           -1.810261	           -0.114606
            1.488500	           -1.193342	          407.691990	          -24.250017	           -0.275413	            0.006227	           -0.408056	           -0.006052	            2.067738	           -0.122992	           -0.591064	          439.471685	           27.894647	           -0.280332	            0.005429	           -0.685660	            0.002406	           -1.789276	           -0.113571
            1.489000	           -1.146442	          407.509934	          -23.838201	           -0.275153	            0.006228	           -0.408219	           -0.005873	            2.087554	           -0.122116	           -0.356753	          439.472029	           28.035332	           -0.280191	            0.005430	           -0.685749	            0.001514	           -1.864688	           -0.118954
            1.489500	           -1.193034	          407.871636	          -24.111677	           -0.274989	            0.006225	           -0.407606	           -0.005892	            2.014498	           -0.119089	           -0.453756	          440.392287	           28.085585	           -0.280132	            0.005430	           -0.685801	            0.001937	           -1.879799	           -0.119882
            1.490000	           -1.284753	          408.051914	          -24.110676	           -0.275109	            0.006226	           -0.407816	           -0.006540	            2.077324	           -0.122743	           -0.543550	          439.287713	           27.893970	           -0.280599	            0.005427	           -0.685428	            0.002302	           -1.860201	           -0.118119
            1.490500	           -1.240342	          408.414814	          -24.659515	           -0.275152	            0.006225	           -0.407692	           -0.006319	            2.080833	           -0.125638	           -0.777820	          439.287035	           27.847142	           -0.280398	            0.005428	           -0.685511	            0.003135	           -1.770593	           -0.112241
            1.491000	           -1.239560	          407.872807	          -24.386698	           -0.275213	            0.006226	           -0.407773	           -0.006293	            2.070820	           -0.123814	           -0.498673	          439.840198	           27.942850	           -0.280460	            0.005429	           -0.685785	            0.002051	           -1.808644	           -0.114902
            1.491500	           -1.101528	          408.232381	          -24.156214	           -0.275254	            0.006227	           -0.407935	           -0.005646	            2.092399	           -0.123813	           -0.358103	          439.840538	           27.989718	           -0.280495	            0.005428	           -0.685659	            0.001515	           -1.861122	           -0.118434
            1.492000	           -1.331360	          407.872985	          -24.432327	           -0.275085	            0.006227	           -0.408056	           -0.006738	            2.064273	           -0.123654	           -0.589112	          438.919598	           27.798820	           -0.280388	            0.005427	           -0.685260	            0.002449	           -1.824438	           -0.115550
            1.492500	           -0.872801	          408.413508	          -24.339434	           -0.275161	            0.006227	           -0.407976	           -0.004498	            2.104969	           -0.125446	           -0.309986	          439.472867	           27.847600	           -0.280111	            0.005429	           -0.685535	            0.001299	           -1.841865	           -0.116711
            1.493000	           -1.056350	          407.512704	          -24.480411	           -0.275220	            0.006227	           -0.408008	           -0.005522	            2.130393	           -0.127979	           -0.546996	          440.209482	           27.615687	           -0.280293	            0.005430	           -0.685909	            0.002261	           -1.819217	           -0.114125
            1.493500	           -0.780219	          407.871322	          -24.020989	           -0.275028	            0.006226	           -0.407914	           -0.004004	            2.092959	           -0.123262	           -0.356856	          439.472865	           27.800692	           -0.280370	            0.005429	           -0.685663	            0.001486	           -1.829878	           -0.115757
